<svg width="1030" height="375" viewBox="0 0 1030 375" fill="none" xmlns="http://www.w3.org/2000/svg">
<path fill-rule="evenodd" clip-rule="evenodd" d="M196.156 249.159C193.887 262.056 203.81 273.876 216.905 273.876H254.346L286.318 92.1381C288.587 79.2409 278.664 67.4204 265.569 67.4204H228.129L196.156 249.159ZM159.284 131.87C152.002 128.593 143.536 126.954 133.887 126.954C125.694 126.954 118.047 128.684 110.947 132.143C103.847 135.42 97.9297 139.971 93.1961 145.797H92.65L95.3809 130.231H55.1422C44.9277 130.231 36.1848 137.559 34.3992 147.616L0.345528 339.418H43.6455C53.8345 339.418 62.5633 332.126 64.3766 322.1L75.1722 262.407H75.7184C79.1775 267.14 84.4573 270.873 91.5576 273.603C98.6579 276.152 105.758 277.427 112.859 277.427C124.328 277.427 134.888 275.06 144.537 270.326C154.368 265.593 162.834 259.221 169.934 251.21C177.217 243.199 182.861 233.823 186.866 223.082C190.871 212.158 192.874 200.597 192.874 188.399C192.874 179.842 191.6 171.832 189.051 164.367C186.502 156.903 182.77 150.44 177.854 144.978C172.938 139.334 166.748 134.965 159.284 131.87ZM127.605 181.845C131.429 185.85 133.34 190.766 133.34 196.592C133.34 200.961 132.703 205.058 131.429 208.881C130.154 212.522 128.243 215.799 125.694 218.712C123.327 221.625 120.414 223.901 116.955 225.54C113.496 227.178 109.582 227.997 105.212 227.997C98.2938 227.997 92.923 226.086 89.0998 222.262C85.4586 218.257 83.638 213.251 83.638 207.243C83.638 203.055 84.2752 199.05 85.5496 195.227C87.0061 191.403 88.9177 188.126 91.2845 185.395C93.8334 182.482 96.7463 180.207 100.023 178.568C103.483 176.747 107.306 175.837 111.493 175.837C118.594 175.837 123.964 177.84 127.605 181.845ZM367.011 214.889H363.461C358.909 214.889 354.631 215.162 350.625 215.708C346.62 216.255 343.07 217.165 339.975 218.439C337.062 219.532 334.695 221.079 332.875 223.082C331.054 224.902 330.144 227.269 330.144 230.182C330.144 234.369 331.418 237.1 333.967 238.375C336.698 239.467 339.611 240.013 342.706 240.013C348.714 240.013 353.812 238.102 357.999 234.278C362.368 230.455 365.099 225.54 366.192 219.532L367.011 214.889ZM414.255 251.756C413.527 255.762 412.981 259.858 412.617 264.045C412.435 268.233 412.344 271.51 412.344 273.876H359.91V267.869C360.093 264.956 360.275 262.589 360.457 260.768H359.91C354.631 266.776 348.623 271.146 341.887 273.876C335.15 276.425 327.686 277.7 319.493 277.7C314.395 277.7 309.298 276.972 304.2 275.515C299.102 274.059 294.46 271.874 290.273 268.961C286.267 265.866 282.99 261.952 280.441 257.218C277.892 252.302 276.618 246.476 276.618 239.74C276.618 228.635 279.076 219.532 283.991 212.431C289.089 205.149 295.825 199.414 304.2 195.227C312.757 191.039 322.588 188.126 333.694 186.488C344.8 184.667 356.451 183.757 368.649 183.757C368.831 183.029 368.922 182.482 368.922 182.118V180.753C368.922 177.112 367.284 174.381 364.007 172.56C360.912 170.557 356.815 169.556 351.718 169.556C345.892 169.556 340.248 170.739 334.786 173.106C329.324 175.291 324.318 178.295 319.766 182.118L305.12 165.379C298.341 157.632 298.794 145.684 307.75 140.609C313.394 137.331 319.129 134.601 324.955 132.416C330.781 130.231 336.698 128.593 342.706 127.5C348.714 126.408 354.449 125.862 359.91 125.862C381.758 125.862 398.143 130.322 409.067 139.243C420.172 147.982 425.725 160.362 425.725 176.383C425.725 183.12 424.997 190.675 423.541 199.05L414.255 251.756ZM448.817 144.978C448.089 150.44 447.36 154.9 446.632 158.359L426.424 273.876H487.596L501.25 197.957C502.525 190.857 504.709 185.486 507.804 181.845C511.081 178.022 514.814 176.11 519.001 176.11C523.371 176.11 526.557 177.294 528.559 179.66C530.562 181.845 531.563 184.758 531.563 188.399C531.563 189.492 531.472 190.948 531.29 192.769C531.29 194.407 531.108 196.046 530.744 197.684L517.363 273.876H561.09C571.332 273.876 580.09 266.511 581.846 256.422L593.828 187.58C594.374 184.667 594.738 181.663 594.92 178.568C595.284 175.291 595.466 172.196 595.466 169.283C595.466 163.821 594.647 158.541 593.008 153.444C591.552 148.346 589.003 143.886 585.362 140.062C581.903 136.057 577.351 132.871 571.707 130.504C566.246 128.137 559.509 126.954 551.499 126.954C542.396 126.954 534.021 129.139 526.375 133.508C518.91 137.878 513.084 142.975 508.897 148.801H507.804C508.169 146.252 508.533 143.248 508.897 139.789C509.261 136.148 509.534 132.962 509.716 130.231C509.716 130.231 451.093 125.862 450.729 130.231C450.364 134.601 449.727 139.516 448.817 144.978ZM658.222 216.255C658.04 216.801 657.949 217.438 657.949 218.166C657.949 221.261 658.768 223.81 660.407 225.813C662.045 227.633 664.048 229.181 666.415 230.455C668.782 231.548 671.331 232.367 674.061 232.913C676.792 233.277 679.25 233.459 681.435 233.459C685.986 233.459 690.447 232.731 694.816 231.274C699.186 229.636 703.1 227.178 706.559 223.901L747.796 252.302C738.329 261.952 727.496 268.688 715.298 272.511C703.1 276.334 690.447 278.246 677.339 278.246C667.143 278.246 657.403 276.88 648.118 274.15C639.015 271.419 631.004 267.322 624.086 261.861C617.35 256.399 611.979 249.663 607.974 241.652C603.968 233.459 601.966 223.901 601.966 212.977C601.966 200.779 604.15 189.401 608.52 178.841C612.889 168.1 618.988 158.815 626.817 150.986C634.828 143.157 644.295 137.058 655.218 132.689C666.324 128.137 678.522 125.862 691.812 125.862C702.372 125.862 711.839 127.409 720.214 130.504C728.588 133.417 735.689 137.696 741.515 143.339C747.341 148.801 751.801 155.537 754.896 163.548C758.173 171.377 759.812 180.207 759.812 190.038C759.812 194.043 759.448 198.413 758.719 203.146C757.804 211.08 750.565 216.255 742.578 216.255H658.222ZM706.559 183.757C706.741 183.211 706.832 182.664 706.832 182.118V180.48C706.832 175.928 705.103 172.287 701.644 169.556C698.366 166.825 693.724 165.46 687.716 165.46C683.893 165.46 680.434 166.097 677.339 167.371C674.426 168.646 671.877 170.193 669.692 172.014C667.507 173.835 665.687 175.837 664.23 178.022C662.956 180.025 662.046 181.936 661.499 183.757H706.559ZM832.382 214.616L839.755 174.199H866.518L874.165 130.231H846.583L847.954 122.462C850.23 109.562 840.306 97.7334 827.207 97.7334H793.057L787.322 130.231H768.214L772.427 174.199H780.768L771.21 226.905C770.846 229.09 770.481 231.456 770.117 234.005C769.935 236.554 769.844 238.83 769.844 240.833C769.844 248.297 771.21 254.396 773.941 259.13C776.854 263.863 780.586 267.595 785.137 270.326C789.689 273.057 794.878 274.969 800.703 276.061C806.529 277.154 812.446 277.7 818.454 277.7C824.098 277.7 829.924 277.245 835.932 276.334C841.94 275.424 846.127 274.241 848.494 272.784L855.868 230.728C854.411 231.092 852.59 231.457 850.406 231.821C848.221 232.185 846.036 232.367 843.852 232.367C840.028 232.367 837.024 231.73 834.84 230.455C832.837 228.999 831.836 226.177 831.836 221.989V218.439C832.018 216.983 832.2 215.708 832.382 214.616ZM907.64 232.21C901.499 229.862 896.08 226.34 891.384 221.644L869.131 248.19C864.366 253.875 865.08 262.478 871.543 266.118C877.398 269.414 883.74 271.93 890.571 273.665C901.95 276.555 912.788 278 923.084 278C930.851 278 938.709 277.097 946.656 275.291C954.785 273.484 962.1 270.504 968.603 266.349C975.286 262.195 980.705 256.776 984.86 250.093C989.195 243.409 991.362 235.281 991.362 225.708C991.362 219.386 990.278 213.876 988.111 209.18C985.943 204.484 982.873 200.42 978.899 196.988C974.925 193.556 970.138 190.666 964.539 188.317C959.12 185.789 953.069 183.711 946.385 182.086C941.689 180.821 938.347 179.737 936.36 178.834C934.554 177.75 933.651 176.305 933.651 174.499C933.651 172.332 934.735 170.796 936.902 169.893C939.25 168.809 942.231 168.267 945.843 168.267C951.082 168.267 956.41 169.442 961.829 171.79C967.248 173.957 971.493 176.667 974.564 179.918L993.269 158.448C1000.17 150.53 999.324 138.353 989.668 134.227C986.732 132.973 983.594 131.856 980.253 130.877C969.958 127.626 959.21 126 948.011 126C939.883 126 931.754 127.084 923.626 129.251C915.678 131.419 908.453 134.67 901.95 139.005C895.628 143.341 890.48 148.85 886.507 155.533C882.713 162.216 880.817 169.983 880.817 178.834C880.817 184.614 881.72 189.672 883.526 194.007C885.513 198.342 888.223 202.136 891.654 205.387C895.267 208.638 899.512 211.438 904.389 213.786C909.447 216.134 915.136 218.212 921.458 220.018C925.794 221.282 929.316 222.637 932.025 224.082C934.915 225.527 936.36 227.333 936.36 229.501C936.36 231.669 935.277 233.294 933.109 234.378C931.122 235.281 928.322 235.733 924.71 235.733C919.472 235.733 913.782 234.559 907.64 232.21Z" fill="#042C62"/>
</svg>
